<mxfile host="app.diagrams.net" modified="2020-12-12T13:12:14.187Z" agent="5.0 (X11)" etag="rQT_zyx8jBmyTWeyLrQ1" version="14.0.1" type="github">
  <diagram id="w-qACllJALI-qsmSZrOG" name="Page-1">
    <mxGraphModel dx="1185" dy="693" grid="1" gridSize="10" guides="1" tooltips="1" connect="1" arrows="1" fold="1" page="1" pageScale="1" pageWidth="1100" pageHeight="850" math="0" shadow="0">
      <root>
        <mxCell id="0" />
        <mxCell id="1" parent="0" />
        <mxCell id="3ZiGfr_VtI6XE2ZFN6G1-6" style="edgeStyle=orthogonalEdgeStyle;rounded=0;orthogonalLoop=1;jettySize=auto;html=1;exitX=1;exitY=0.5;exitDx=0;exitDy=0;entryX=0;entryY=0.5;entryDx=0;entryDy=0;" edge="1" parent="1" source="3ZiGfr_VtI6XE2ZFN6G1-1" target="3ZiGfr_VtI6XE2ZFN6G1-4">
          <mxGeometry relative="1" as="geometry" />
        </mxCell>
        <mxCell id="3ZiGfr_VtI6XE2ZFN6G1-1" value="Login" style="ellipse;whiteSpace=wrap;html=1;" vertex="1" parent="1">
          <mxGeometry x="30" y="320" width="120" height="80" as="geometry" />
        </mxCell>
        <mxCell id="3ZiGfr_VtI6XE2ZFN6G1-7" style="edgeStyle=orthogonalEdgeStyle;rounded=0;orthogonalLoop=1;jettySize=auto;html=1;entryX=0;entryY=0.5;entryDx=0;entryDy=0;" edge="1" parent="1" source="3ZiGfr_VtI6XE2ZFN6G1-4" target="3ZiGfr_VtI6XE2ZFN6G1-5">
          <mxGeometry relative="1" as="geometry" />
        </mxCell>
        <mxCell id="3ZiGfr_VtI6XE2ZFN6G1-4" value="Application Deployment Configuration" style="shape=ext;double=1;rounded=1;whiteSpace=wrap;html=1;" vertex="1" parent="1">
          <mxGeometry x="200" y="320" width="120" height="80" as="geometry" />
        </mxCell>
        <mxCell id="3ZiGfr_VtI6XE2ZFN6G1-22" style="edgeStyle=orthogonalEdgeStyle;rounded=0;orthogonalLoop=1;jettySize=auto;html=1;" edge="1" parent="1" source="3ZiGfr_VtI6XE2ZFN6G1-5" target="3ZiGfr_VtI6XE2ZFN6G1-10">
          <mxGeometry relative="1" as="geometry" />
        </mxCell>
        <mxCell id="3ZiGfr_VtI6XE2ZFN6G1-5" value="&lt;div&gt;Resource&lt;/div&gt;&lt;div&gt;Available?&lt;br&gt;&lt;/div&gt;" style="rhombus;whiteSpace=wrap;html=1;" vertex="1" parent="1">
          <mxGeometry x="380" y="320" width="80" height="80" as="geometry" />
        </mxCell>
        <mxCell id="3ZiGfr_VtI6XE2ZFN6G1-8" style="edgeStyle=orthogonalEdgeStyle;rounded=0;orthogonalLoop=1;jettySize=auto;html=1;entryX=0.5;entryY=1;entryDx=0;entryDy=0;" edge="1" parent="1" source="3ZiGfr_VtI6XE2ZFN6G1-5" target="3ZiGfr_VtI6XE2ZFN6G1-5">
          <mxGeometry relative="1" as="geometry">
            <Array as="points">
              <mxPoint x="420" y="300" />
              <mxPoint x="350" y="300" />
              <mxPoint x="350" y="420" />
              <mxPoint x="420" y="420" />
            </Array>
          </mxGeometry>
        </mxCell>
        <mxCell id="3ZiGfr_VtI6XE2ZFN6G1-9" value="No" style="edgeLabel;html=1;align=center;verticalAlign=middle;resizable=0;points=[];" vertex="1" connectable="0" parent="3ZiGfr_VtI6XE2ZFN6G1-8">
          <mxGeometry x="-0.76" y="-2" relative="1" as="geometry">
            <mxPoint as="offset" />
          </mxGeometry>
        </mxCell>
        <mxCell id="3ZiGfr_VtI6XE2ZFN6G1-17" style="edgeStyle=orthogonalEdgeStyle;rounded=0;orthogonalLoop=1;jettySize=auto;html=1;exitX=0.5;exitY=0;exitDx=0;exitDy=0;entryX=0;entryY=0.5;entryDx=0;entryDy=0;" edge="1" parent="1" source="3ZiGfr_VtI6XE2ZFN6G1-10" target="3ZiGfr_VtI6XE2ZFN6G1-16">
          <mxGeometry relative="1" as="geometry" />
        </mxCell>
        <mxCell id="3ZiGfr_VtI6XE2ZFN6G1-18" style="edgeStyle=orthogonalEdgeStyle;rounded=0;orthogonalLoop=1;jettySize=auto;html=1;entryX=0;entryY=0.5;entryDx=0;entryDy=0;" edge="1" parent="1" source="3ZiGfr_VtI6XE2ZFN6G1-10" target="3ZiGfr_VtI6XE2ZFN6G1-14">
          <mxGeometry relative="1" as="geometry" />
        </mxCell>
        <mxCell id="3ZiGfr_VtI6XE2ZFN6G1-10" value="&lt;div&gt;Build Application &lt;br&gt;&lt;/div&gt;&lt;div&gt;and Expose APIs &lt;/div&gt;" style="shape=ext;double=1;rounded=1;whiteSpace=wrap;html=1;" vertex="1" parent="1">
          <mxGeometry x="480" y="320" width="110" height="80" as="geometry" />
        </mxCell>
        <mxCell id="3ZiGfr_VtI6XE2ZFN6G1-26" style="edgeStyle=orthogonalEdgeStyle;rounded=0;orthogonalLoop=1;jettySize=auto;html=1;exitX=1;exitY=0.5;exitDx=0;exitDy=0;entryX=0;entryY=0.5;entryDx=0;entryDy=0;" edge="1" parent="1" source="3ZiGfr_VtI6XE2ZFN6G1-12" target="3ZiGfr_VtI6XE2ZFN6G1-24">
          <mxGeometry relative="1" as="geometry" />
        </mxCell>
        <mxCell id="3ZiGfr_VtI6XE2ZFN6G1-12" value="&lt;div&gt;Run&lt;/div&gt;&lt;div&gt;Experiment&lt;br&gt;&lt;/div&gt;" style="shape=ext;double=1;rounded=1;whiteSpace=wrap;html=1;" vertex="1" parent="1">
          <mxGeometry x="630" y="320" width="90" height="80" as="geometry" />
        </mxCell>
        <mxCell id="3ZiGfr_VtI6XE2ZFN6G1-21" style="edgeStyle=orthogonalEdgeStyle;rounded=0;orthogonalLoop=1;jettySize=auto;html=1;entryX=0.511;entryY=1.029;entryDx=0;entryDy=0;entryPerimeter=0;exitX=1;exitY=0.5;exitDx=0;exitDy=0;" edge="1" parent="1" source="3ZiGfr_VtI6XE2ZFN6G1-14" target="3ZiGfr_VtI6XE2ZFN6G1-12">
          <mxGeometry relative="1" as="geometry" />
        </mxCell>
        <mxCell id="3ZiGfr_VtI6XE2ZFN6G1-14" value="&lt;div&gt;Interactive&lt;/div&gt;&lt;div&gt;Web API&lt;br&gt;&lt;/div&gt;" style="shape=ext;double=1;rounded=1;whiteSpace=wrap;html=1;" vertex="1" parent="1">
          <mxGeometry x="560" y="420" width="90" height="45" as="geometry" />
        </mxCell>
        <mxCell id="3ZiGfr_VtI6XE2ZFN6G1-20" style="edgeStyle=orthogonalEdgeStyle;rounded=0;orthogonalLoop=1;jettySize=auto;html=1;entryX=0.5;entryY=0;entryDx=0;entryDy=0;exitX=1;exitY=0.5;exitDx=0;exitDy=0;" edge="1" parent="1" source="3ZiGfr_VtI6XE2ZFN6G1-16" target="3ZiGfr_VtI6XE2ZFN6G1-12">
          <mxGeometry relative="1" as="geometry" />
        </mxCell>
        <mxCell id="3ZiGfr_VtI6XE2ZFN6G1-16" value="&lt;div&gt;HTTP REST&lt;/div&gt;&lt;div&gt;API&lt;br&gt;&lt;/div&gt;" style="shape=ext;double=1;rounded=1;whiteSpace=wrap;html=1;" vertex="1" parent="1">
          <mxGeometry x="560" y="260" width="90" height="45" as="geometry" />
        </mxCell>
        <mxCell id="3ZiGfr_VtI6XE2ZFN6G1-23" value="Logout" style="ellipse;whiteSpace=wrap;html=1;" vertex="1" parent="1">
          <mxGeometry x="830" y="320" width="120" height="80" as="geometry" />
        </mxCell>
        <mxCell id="3ZiGfr_VtI6XE2ZFN6G1-25" style="edgeStyle=orthogonalEdgeStyle;rounded=0;orthogonalLoop=1;jettySize=auto;html=1;exitX=1;exitY=0.5;exitDx=0;exitDy=0;" edge="1" parent="1" source="3ZiGfr_VtI6XE2ZFN6G1-24" target="3ZiGfr_VtI6XE2ZFN6G1-23">
          <mxGeometry relative="1" as="geometry" />
        </mxCell>
        <mxCell id="3ZiGfr_VtI6XE2ZFN6G1-24" value="&lt;div&gt;Save&lt;/div&gt;&lt;div&gt;Results&lt;br&gt;&lt;/div&gt;" style="shape=ext;double=1;rounded=1;whiteSpace=wrap;html=1;" vertex="1" parent="1">
          <mxGeometry x="740" y="320" width="60" height="80" as="geometry" />
        </mxCell>
      </root>
    </mxGraphModel>
  </diagram>
</mxfile>
